<?xml version="1.0" encoding="utf-8"?>
<!-- Generator: Adobe Illustrator 27.5.0, SVG Export Plug-In . SVG Version: 6.00 Build 0)  -->
<svg version="1.1" xmlns="http://www.w3.org/2000/svg" xmlns:xlink="http://www.w3.org/1999/xlink" x="0px" y="0px"
	 viewBox="0 0 750 500" style="enable-background:new 0 0 750 500;" xml:space="preserve">
<g id="BACKGROUND">
	<g>
		<rect style="fill:#EAE7F3;" width="750" height="500"/>
	</g>
</g>
<g id="OBJECTS">
	<g>
		<defs>
			<rect id="SVGID_1_" width="750" height="500"/>
		</defs>
		<clipPath id="SVGID_00000127750735071625413040000003061432613863429525_">
			<use xlink:href="#SVGID_1_"  style="overflow:visible;"/>
		</clipPath>
		<g style="clip-path:url(#SVGID_00000127750735071625413040000003061432613863429525_);">
			<path style="fill:#E2E2F2;" d="M815.297,258.471c-11.658-17.3-26.96-32.81-46.166-40.954c-21.412-9.08-45.741-8.276-68.68-4.444
				c-28.453,4.753-56.015,13.875-84.38,19.125c-28.366,5.249-58.503,6.417-85.26-4.366c-26.756-10.783-49.246-35.692-50.342-64.519
				c-1.073-28.211,17.218-52.856,30.66-77.683c16.752-30.94,26.829-67.641,17.109-101.456c-9.72-33.815-44.068-61.858-78.653-55.394
				c-20.09,3.755-36.868,17.957-48.985,34.416c-17.263,23.45-26.854,52.455-26.973,81.574
				c-0.168,41.135,17.862,80.478,19.637,121.575c0.587,13.588-0.8,27.809-7.886,39.418c-10.757,17.623-32.07,25.585-46.535,40.316
				c-18.284,18.622-23.833,48.618-13.42,72.548c14.566,33.476,52.973,48.783,78.002,75.36
				c31.954,33.929,39.893,83.57,63.184,123.941c8.628,14.956,21.853,29.972,39.117,30.278c22.735,0.403,37.559-24.908,39.658-47.549
				c2.14-23.08-3.736-46.828-16.392-66.247c-14.927-22.904-38.257-39.046-54.987-60.668c-16.73-21.622-25.628-54.192-8.453-75.462
				c12.195-15.103,33.352-19.327,52.753-19.995c16.366-0.564,33.37,0.839,47.758,8.659c16.783,9.12,28.02,25.862,36.524,42.965
				c19.345,38.906,28.195,83.05,52.716,118.92c19.525,28.562,48.604,50.47,81.444,61.358c21.515,7.134,46.049,9.348,66.179-1.073
				c21.236-10.994,33.546-33.694,42.473-55.878c12.943-32.161,14.405-66.015,5.792-99.468
				C842.826,321.284,834.278,286.638,815.297,258.471z"/>
			<g>
				<path style="fill:#E2E2F2;" d="M318.625,13.356c3.686,24.823-4.819,49.658-13.196,73.313
					c-3.773,10.654-7.582,21.385-13.345,31.107c-10.036,16.93-25.417,29.887-38.582,44.516
					c-17.425,19.364-31.322,42.387-37.297,67.743c-5.974,25.356-3.532,53.15,9.487,75.714c11.994,20.788,31.733,35.716,50.52,50.651
					c36.999,29.413,72.247,61.029,105.494,94.624c8.154,8.239,16.493,17.126,19.406,28.346c5.357,20.637-10.767,42.36-30.969,49.176
					c-20.202,6.817-42.595,1.863-62.162-6.605c-21.872-9.465-42.703-24.254-52.782-45.85c-13.827-29.628-5.36-67.025-22.935-94.595
					c-13.098-20.548-38.551-30.793-62.919-30.848c-24.368-0.055-47.904,8.681-69.898,19.172
					c-20.482,9.77-41.086,21.415-63.761,22.321c-40.822,1.63-76.403-34.639-83.925-74.795c-4.664-24.898,4.102-56.616,28.765-62.396
					c12.663-2.968,25.779,1.931,37.445,7.683c18.659,9.2,36.2,20.846,55.796,27.834s42.407,8.773,60.443-1.596
					c18.036-10.369,28.038-35.638,16.913-53.218c-5.303-8.381-14.18-13.732-22.863-18.524
					c-20.309-11.21-41.366-21.066-62.985-29.479c-21.373-8.318-43.473-15.313-63.073-27.222
					c-9.255-5.623-18.195-12.703-22.697-22.552c-2.983-6.525-3.803-13.802-4.446-20.947c-4.805-53.424-0.11-111.895,34.706-152.7
					c27.254-31.943,68.433-47.798,108.028-61.777c23.84-8.416,48.466-16.707,73.723-15.587
					c33.875,1.501,50.581,21.947,71.841,44.746C286.33-43.751,313.346-22.193,318.625,13.356z"/>
			</g>
			<path style="fill:#E492D2;" d="M535.113-0.411c-5.369,3.571-10.908,7.606-13.374,13.563c-3.055,7.381-0.66,15.767,1.756,23.381
				c4.831,15.229,9.662,30.458,14.492,45.686c0.658,2.076,1.405,4.281,3.125,5.616c3.02,2.343,7.374,0.94,10.876-0.59
				c15.174-6.629,30.101-14.077,46.09-18.384c15.988-4.307,33.461-5.268,48.778,1.022c15.317,6.291,27.845,20.941,28.244,37.495
				c0.466,19.32-14.34,35.107-27.377,49.373c-13.037,14.266-26.071,32.587-21.198,51.288c3.707,14.225,17.2,24.077,31.286,28.28
				c18.879,5.633,39.618,3.042,57.724-4.724c18.106-7.766,33.774-20.42,47.299-34.745c33.288-35.258,54.875-83.914,48.9-132.034
				c-5.177-41.688-31.327-79.894-67.513-101.23c-26.126-15.405-57.03-22.027-87.205-19.965
				c-13.094,0.895-24.179,2.987-34.998,10.452c-11.808,8.148-25.303,12.346-38.27,18.333
				C566.871-19.798,550.592-10.705,535.113-0.411z"/>
			<path style="fill:#7658DC;" d="M715.121,235.621c-17.859-12.718-43.382-14.748-61.947-3.084
				c-14.623,9.188-23.714,25.566-27.013,42.519c-3.3,16.952-1.36,34.516,2.233,51.409c2.653,12.472,7.552,26.351,19.358,31.169
				c7.972,3.254,17.022,1.402,25.357-0.76c1.55-0.402,3.184-0.864,4.275-2.035c1.874-2.012,1.411-5.181,0.848-7.873
				c-1.955-9.349-3.656-18.895-2.785-28.406c0.871-9.511,4.606-19.11,11.918-25.255c8.714-7.323,22.616-8.334,31.495-1.212
				c8.04,6.449,10.576,17.338,13.958,27.074c0.528,1.52,1.246,3.198,2.75,3.772c1.916,0.732,3.94-0.729,5.329-2.237
				c12.718-13.818,4.455-27.178,1.061-42.16C738.117,261.594,729.501,245.861,715.121,235.621z"/>
			<path style="fill:#231C3A;" d="M719.805,504.06c8.651-19.766,28.107-32.104,45.574-44.77
				c17.467-12.666,35.167-29.091,37.003-50.589c0.479-5.603-0.214-11.376-2.568-16.482c-6.434-13.953-24.016-19.818-39.211-17.542
				s-28.602,10.839-41.55,19.112c-12.948,8.273-26.515,16.663-41.768,18.518c-21.247,2.583-41.903-7.98-59.181-20.613
				c-17.278-12.633-33.03-27.796-52.458-36.776c-27.689-12.798-64.816-9.487-83.429,14.68c-7.492,9.728-11.336,21.686-16.607,32.777
				c-7.862,16.542-19.074,31.39-32.196,44.168c-13.285,12.936-28.558,23.844-40.724,37.838
				c-12.166,13.994-21.204,32.282-18.494,50.626c3.333,22.563,23.15,38.98,43.314,49.639c27.227,14.393,57.335,22.428,87.459,28.832
				c46.44,9.873,94.623,16.132,141.299,7.441c20.842-3.881,41.727-11.064,57.523-25.203c11.884-10.638,24.362-29.912,21.654-46.748
				c-0.992-6.167-5.253-11.231-7.145-17.137C715.39,522.747,715.98,512.799,719.805,504.06z"/>
			<path style="fill:#E492D2;" d="M212.756,19.543c-7.954,6.718-18.036,10.231-27.665,14.192
				c-45.182,18.587-86.395,52.049-103.638,97.76c-3.057,8.103-5.458,16.721-10.971,23.4c-4.757,5.762-11.445,9.578-18.221,12.726
				c-28.948,13.45-64.148,16.41-92.394,1.542c-16.261-8.559-29.335-22.496-38.534-38.404
				c-14.935-25.828-19.884-57.265-13.608-86.432C-82.187-2.561-45.735-39.01-8.031-68.653
				c20.393-16.033,41.895-31.082,65.905-40.901c19.754-8.078,40.881-12.467,62.124-14.523c15.492-1.499,31.637-1.685,46.018,4.271
				c10.152,4.204,18.893,11.276,26.507,19.199C217.587-74.53,248.017-10.235,212.756,19.543z"/>
			<path style="fill:#7658DC;" d="M46.496,126.275c-6.253,6.321-6.909,16.18-6.486,25.061c0.762,16.007,4.189,32.712,14.666,44.837
				c3.013,3.487,6.675,6.585,11.06,8.004c7.237,2.341,15.05-0.206,22.224-2.734c8.518-3.002,17.907-6.774,21.614-15.01
				C121.243,160.51,71.712,100.789,46.496,126.275z"/>
			<path style="fill:#7658DC;" d="M14.32,268.274c12.787,7.459,25.958,15.493,33.936,27.964
				c7.704,12.043,9.625,26.739,12.448,40.754c4.591,22.797,12.08,45.107,23.347,65.449c9.696,17.505,22.268,33.781,27.787,53.016
				c6.935,24.167,1.23,51.737-15.227,70.744c-16.457,19.008-43.305,28.614-67.968,23.727c-18.286-3.623-34.525-14.542-47.309-28.11
				c-12.783-13.569-22.442-29.74-31.42-46.078c-20.352-37.039-38.121-77.287-37.757-119.548c0.17-19.696,4.307-39.186,10.15-57.996
				c2.795-8.998,6.039-17.985,11.331-25.78c6.497-9.57,20.467-23.027,32.639-24.028C-18.083,247.105,1.505,260.799,14.32,268.274z"
				/>
			<path style="fill:#231C3A;" d="M74.426,423.181c-3.03,7.726-3.746,17.095,1.082,23.845c4.058,5.674,11.437,8.386,18.398,7.94
				s13.501-3.693,19.017-7.962c5.771-4.466,10.71-10.248,13.165-17.12c2.455-6.872,2.186-14.901-1.683-21.092
				C108.934,384.043,82.343,402.993,74.426,423.181z"/>
			<path style="fill:#231C3A;" d="M289.187-12.178c6.975,14.455,12.69,31.694,27.33,38.271c10.2,4.582,21.975,2.532,33.139,3.161
				c16.535,0.931,32.635,8.201,44.267,19.989c9.244,9.367,18.878,22.704,31.791,20.165c9.223-1.814,14.646-11.21,18.493-19.786
				c9.162-20.422,16.243-44.229,7.287-64.742c-6.553-15.009-20.559-25.348-34.771-33.485
				c-30.096-17.231-63.955-27.848-98.501-30.887c-11.177-0.983-22.776-1.125-33.218,2.98c-9.821,3.86-23.087,15.134-20.373,26.97
				C267.462-37.197,283.395-24.18,289.187-12.178z"/>
			<path style="fill:#231C3A;" d="M124.169-43.525c-6.437-7.947-13.929-15.288-21.766-21.863
				C96.24-70.559,88.631-76.194,80.162-75.45c-1.187,0.104-2.168,5.211-1.346,5.929c0.289,0.252,0.565,0.514,0.851,0.769
				c0.021,0.309,0.099,0.559,0.264,0.697c16.277,13.585,12.252,40.877,14.84,59.69c1.56,11.339,5.742,19.958,11.712,29.602
				c6.568,10.611,11.554,22.146,14.963,34.145c6.164,21.692,4.354,45.33,15.324,65.546c5.657,10.424,13.242,19.393,18.136,30.29
				c4.842,10.779,8.351,22.1,13.019,32.953c0.29,0.674,0.941-0.612,0.998-0.718c2.613-4.874,2.709-10.731,2.243-16.115
				c-0.833-9.63-1.368-18.803-0.957-28.517c0.857-20.217,2.388-42.188-5.593-61.27c-4.307-10.297-10.868-19.427-15.639-29.49
				c-5.048-10.645-7.403-22.075-7.788-33.808c-0.347-10.563,0.038-21.264-2.77-31.558C135.767-27.028,130.47-35.746,124.169-43.525z
				 M139.615,116.49c-5.096-8.847-8.002-18.205-9.546-28.248c-2.841-18.49-4.777-36.374-11.93-53.893
				c-4.352-10.659-11.174-19.641-16.157-29.884c-4.745-9.753-5.633-20.499-6.357-31.156c-0.624-9.197-0.93-20.143-3.864-29.729
				c10.849,12.74,18.878,27.543,23.195,44.025c5.654,21.583,7.972,43.087,17.977,63.346c5.448,11.033,11.705,21.843,15.158,33.73
				c3.309,11.392,3.803,23.258,5.228,34.967c1.225,10.065,2.728,20.642,5.974,30.268c2.728,8.089,7.327,15.798,8.951,24.206
				c-0.128-0.243-0.276-0.515-0.455-0.822c-1.135-1.952-1.787-4.513-2.589-6.622c-3.344-8.798-6.391-17.741-10.582-26.187
				C150.392,131.971,144.345,124.7,139.615,116.49z M138.649,5.179c0.831,17.375,0.938,33.564,8.531,49.684
				c3.734,7.927,8.605,15.253,12.583,23.052c5.406,10.6,7.815,21.527,8.457,33.361c0.906,16.699-1.932,33.788-0.426,50.425
				c-1.372-3.951-3.067-7.82-4.648-11.715c-4.705-11.594-6.748-24.542-8.153-36.932c-1.279-11.275-1.876-22.681-5.072-33.638
				c-3.083-10.568-8.284-20.32-13.252-30.087c-5.633-11.074-10.217-22.116-12.981-34.252c-2.635-11.574-4.41-23.346-7.597-34.793
				c-5.235-18.799-15.28-34.174-28.226-47.998c10.168,4.047,19.268,14.55,26.091,21.538
				C128.182-31.606,137.658-15.548,138.649,5.179z"/>
			<path style="fill:#231C3A;" d="M250.266,91.741c-5.169-7.679-12.296-13.394-14.681-22.708
				c-2.094-8.175-2.676-16.518-5.511-24.531c-2.667-7.542-6.534-14.62-11.868-20.613c-4.655-5.23-16.896-17.553-24.473-12.02
				c-0.711,0.519-1.519,3.91-0.782,4.557c0.458,0.402,0.909,0.815,1.361,1.228c8.247,12.068,11.837,25.031,13.729,39.474
				c1.62,12.368,3.71,24.367,10.755,34.944c3.639,5.463,8.465,9.78,12.523,14.877c4.248,5.335,7.316,11.482,9.336,17.984
				c1.824,5.872,2.399,12.065,4.576,17.824c2.516,6.658,6.588,12.549,10.177,18.65c0.18,0.306,0.554-0.722,0.845-1.866
				c0.482-0.686,1.327-3.285,0.77-4.014c-0.301-0.394-0.582-0.796-0.852-1.203c-0.907-7.635,1.433-15.161,2.61-22.708
				c0.977-6.264,1.071-12.549,0.02-18.817C257.531,105.225,254.549,98.103,250.266,91.741z M219.94,87.368
				c-7.832-11.651-9.204-24.789-11.143-38.323c-1.14-7.958-3.079-15.476-6.196-22.544c5.348,6.718,9.461,14.397,11.264,22.832
				c1.373,6.425,2.272,12.76,4.752,18.894c2.525,6.248,6.222,11.69,10.186,17.098c8.041,10.97,18.009,22.122,20.352,35.943
				c1.362,8.033,0.216,17.288,1.533,25.658c-1.604-2.839-3.083-5.74-4.22-8.802c-2.388-6.428-2.967-13.354-5.267-19.837
				c-2.055-5.794-4.891-11.258-8.729-16.077C228.418,97.119,223.595,92.806,219.94,87.368z M257.89,120.003
				c1.041,10.649-2.839,20.99-3.318,31.488c-5.225-10.931-1.988-25.099-4.617-36.773c-2.904-12.892-12.423-23.533-20.048-33.928
				c-3.965-5.406-7.671-10.847-10.186-17.098c-2.753-6.843-3.25-14.022-5.178-21.063c-2.908-10.622-9.292-19.563-16.924-27.264
				c3.509,0.263,7.209,2.705,9.804,4.515c4.784,3.338,9.075,7.47,12.57,12.138c5.052,6.749,8.528,14.557,10.649,22.695
				c1.958,7.513,2.075,15.62,5.049,22.849c2.98,7.242,9.149,12.388,13.455,18.786C253.917,103.438,257.057,111.472,257.89,120.003z"
				/>
			<path style="fill:#231C3A;" d="M705.275,75.942c6.55-9.21,10.014-19.813,19.631-26.546c8.441-5.91,17.723-10.165,25.66-16.851
				c7.47-6.293,13.894-13.756,18.447-22.43c3.973-7.569,12.788-26.858,3.205-33.136c-0.899-0.589-5.122-0.054-5.544,1.067
				c-0.262,0.697-0.54,1.39-0.818,2.083c-10.241,14.615-23.509,24.295-39.198,32.671c-13.436,7.173-26.247,14.723-35.302,27.323
				c-4.677,6.508-7.533,13.88-11.612,20.711c-4.269,7.15-9.972,13.3-16.532,18.405c-5.924,4.611-12.753,7.932-18.398,12.897
				c-6.526,5.74-11.505,12.926-16.932,19.652c-0.272,0.338,1.064,0.322,2.496,0.163c0.991,0.256,4.324,0.103,4.918-0.846
				c0.321-0.514,0.66-1.008,1.008-1.491c8.334-4.32,17.941-4.885,27.07-6.787c7.578-1.579,14.8-4.175,21.51-8.073
				C692.993,90.044,699.848,83.573,705.275,75.942z M697.224,39.408c9.944-13.962,24.366-21.182,38.996-29.22
				c8.603-4.727,16.359-10.176,23.094-16.779c-5.375,9.001-12.381,17.004-21.242,22.694c-6.75,4.334-13.602,8.086-19.545,13.559
				c-6.053,5.574-10.681,12.139-15.155,18.995c-9.076,13.908-17.529,30.096-32.314,38.72c-8.593,5.012-19.661,7.684-28.659,12.79
				c2.554-3.054,5.233-5.993,8.242-8.609c6.318-5.494,13.982-9.136,20.401-14.553c5.736-4.841,10.76-10.432,14.616-16.891
				C689.73,53.292,692.584,45.925,697.224,39.408z M676.261,96.813c-11.72,5.771-25.205,5.787-37.407,9.755
				c10.243-10.673,27.824-13.069,40.032-21.097c13.481-8.865,21.545-24.32,30.142-37.505c4.471-6.857,9.094-13.432,15.155-18.995
				c6.635-6.09,14.624-9.746,21.84-14.978c10.886-7.893,18.355-19.034,23.871-31.068c1.209,4.123,0.011,9.401-0.942,13.145
				c-1.756,6.903-4.631,13.583-8.462,19.585c-5.538,8.676-12.964,16.008-21.351,21.932c-7.743,5.469-16.955,9.091-23.936,15.6
				c-6.993,6.52-10.219,15.783-15.676,23.457C693.48,85.146,685.651,92.19,676.261,96.813z"/>
			<path style="fill:#231C3A;" d="M59.387,71.686c0.248-7.996-3.488-15.57-2.276-23.62C58.65,37.84,66.271,29.298,70.426,20.02
				c3.628-8.1,5.97-16.889,5.193-25.826c-0.789-9.068-5.361-15.522-10.014-23.015c-5.299-8.532-11.155-18.555-21.882-20.557
				c-2.615-0.488-12.936,0.214-16.134-2.615c-0.315-0.826-0.479-1.698-0.453-2.621c0.003-0.116-0.162-0.134-0.414-0.087
				c0.045-0.202,0.106-0.411,0.19-0.629c0.064-0.167-3.474,0.956-3.942,2.172c-0.152,0.394-0.226,0.752-0.269,1.094
				c-1.647,4.714,4.097,8.096,7.225,11.043c5.973,5.626,11.735,11.374,14.177,19.436c2.756,9.099,0.406,17.238-4.096,25.281
				c-3.694,6.599-7.564,12.793-8.583,20.443c-1.861,13.972,4.305,27.505,3.284,41.471c-0.475,6.488-2.43,13.07-5.603,18.753
				c-2.462,4.409-5.528,8.283-10.598,9.757c-3.766,1.095-7.802,1.406-11.644,2.177c-6.798,1.364-12.517,3.909-18.362,7.56
				c-4.554,2.844-10.168,6.225-12.306,11.406c-0.037,0.146,0.019,0.233,0.167,0.26c3.533-0.088,6.638-1.285,10.043-2.083
				c5.324-1.249,10.864-1.044,16.29-1.434c8.639-0.622,17.31-2.136,25.372-5.39C41.999,100.995,58.878,88.12,59.387,71.686z
				 M-17.917,110.102c0.745-0.991,2.132-1.93,3.153-2.681c1.583-1.165,3.26-2.2,4.935-3.227c7.82-4.794,16.183-5.318,24.89-7.301
				c10.483-2.387,17.301-11.327,20.828-21.02c4.87-13.385,1.669-26.044-0.226-39.616c-1.293-9.262-0.734-18.054,3.6-26.485
				c4.042-7.864,9.7-15.062,9.944-24.278c0.222-8.372-3.25-16.118-8.793-22.264c-0.341-0.379-0.706-0.739-1.057-1.11
				c4.375,2.863,8.592,5.975,12.396,9.557c9.226,8.687,8.617,19.62,4.54,30.728c-1.895,5.164-4.244,10.148-6.129,15.316
				c-2.741,7.518-4.022,15.396-4.235,23.382c-0.233,8.746-0.287,17.35-0.96,26.089c-0.611,7.941-1.642,15.576-7.094,21.835
				c-6.908,7.93-17.946,10.297-27.575,13.289c-9.684,3.009-19.061,7.007-28.979,9.215c-0.024,0.005-0.055,0.019-0.082,0.027
				C-19.071,111.079-18.641,111.065-17.917,110.102z M46.244,93.281c-7.61,8.021-17.702,12.436-28.41,14.511
				c-8.44,1.636-16.976,1.229-25.438,2.422c-0.189,0.027-0.436,0.081-0.707,0.146c3.94-1.367,7.847-2.844,11.808-4.132
				c8.177-2.658,16.73-4.67,24.454-8.535c5.412-2.708,10.554-6.315,14.302-11.125c4.753-6.099,6.091-13.146,6.653-20.688
				c1.33-17.844-0.46-36.044,6.178-53.019c4.042-10.336,10.862-22.214,7.142-33.624c-2.789-8.553-11.376-14.303-18.492-19.044
				c-3.021-2.013-8.548-4.328-12.393-7.477c7.068,0.688,13.053,0.568,18.921,5.764c6.472,5.73,10.397,13.792,15.128,20.895
				c4.165,6.254,6.455,13.169,6.416,20.725c-0.047,8.852-2.91,17.243-6.765,25.115c-3.769,7.695-9.67,14.788-11.553,23.29
				c-1.526,6.891,0.605,13.289,1.575,20.064C56.417,78.047,52.75,86.422,46.244,93.281z"/>
			<g>
				<path style="fill:#7658DC;" d="M416.999,436.54c-0.072-0.649-0.249-1.29-0.566-1.91c-1.019-1.995-3.056-2.35-4.94-1.765
					c-4.917,0.281-9.007,6.629-9.57,10.954c-0.361,2.767,0.951,4.904,3.859,5.142c0.256,0.021,0.509,0.021,0.76,0.012
					c1.268,0.989,2.961,1.273,4.742,0.412c2.939-1.42,5.235-5.004,5.974-8.105C417.61,439.808,417.547,438.058,416.999,436.54z
					 M404.514,441.181c0.003-1.041,0.399-1.912,1.046-2.588C405.121,439.444,404.767,440.318,404.514,441.181z M412.952,445.584
					c0.433-0.458,0.831-0.936,1.19-1.416c0.223-0.298,0.447-0.614,0.666-0.941c-0.052,0.763-0.276,1.421-0.767,1.766
					C413.696,445.235,413.328,445.425,412.952,445.584z"/>
				<path style="fill:#7658DC;" d="M436.065,412.316c-1.968-0.303-3.914,0.7-5.522,1.949c-1.643,0.248-3.265,0.927-4.523,2.051
					c-2.018,1.802-3.606,4.541-3.814,7.299c-0.139,0.355-0.253,0.709-0.336,1.044c-0.585,2.374,0.235,5.44,2.159,7.014
					c4.945,4.043,10.752-3.795,12.976-8.539c1.022-1.578,1.859-3.278,2.284-5.046C439.899,415.55,438.953,412.76,436.065,412.316z
					 M431.362,424.4c-0.939-0.26-1.15-0.885-1.144-1.806c0.293-0.253,0.694-0.453,1.025-0.613c1.183-0.572,5.037-0.909,3.273,0.845
					c-0.54,0.537-1.369,1.155-2.301,1.656C431.949,424.504,431.666,424.484,431.362,424.4z M431.704,418.746
					c-0.809,0.662-1.52,1.43-2.076,2.165c-0.572,0.757-1.619,2.456-2.129,4.089c-2.521-1.56-0.653-5.056,1.016-6.432
					c0.014-0.011,0.03-0.022,0.043-0.034C429.597,418.414,430.686,418.465,431.704,418.746z M425.986,419.206
					c-0.252,0.374-0.491,0.755-0.716,1.143c-0.066,0.015-0.131,0.031-0.195,0.05c-0.001-0.255-0.025-0.569-0.121-0.639
					C425.278,419.539,425.755,419.311,425.986,419.206z"/>
				<path style="fill:#7658DC;" d="M454.755,384.741c-2.974-0.708-5.581,1.479-7.267,3.678c-1.397,1.823-2.711,4.14-3.013,6.515
					c-0.938,2.473-0.98,4.99,0.853,6.673c2.157,1.981,5.474,0.53,7.404-1.012c2.641-2.11,4.875-5.308,5.805-8.569
					C459.409,388.964,458.104,385.538,454.755,384.741z M450.406,394.66c-0.387-0.342-0.368-0.977-0.448-1.672
					c0.223-0.177,0.432-0.377,0.666-0.543c0.269-0.19,0.56-0.36,0.861-0.509C451.027,392.777,450.63,393.714,450.406,394.66z
					 M447.646,394.351c-0.227-0.506-0.362-1.059-0.407-1.588c-0.003-0.038,0-0.07-0.003-0.107c0.351-0.571,0.844-1.06,1.459-1.389
					c0.36-0.192,0.71-0.29,1.05-0.337C448.897,391.946,448.14,393.118,447.646,394.351z M453.948,397.125
					c0.167-0.27,0.328-0.547,0.485-0.834c0.522-0.652,0.997-1.332,1.41-2.016c0.038-0.062,0.079-0.133,0.119-0.202
					C455.814,395.262,455.023,396.341,453.948,397.125z"/>
				<path style="fill:#7658DC;" d="M473.9,356.51c-3.265-0.816-5.841,1.795-7.41,4.337c-1.653,2.678-2.719,6.215-0.95,9.112
					c0.192,0.315,0.398,0.569,0.612,0.782c0.306,0.477,0.67,0.852,1.073,1.142c0.651,1.185,1.611,1.998,2.958,1.704
					c2.077-0.454,3.737-2.779,4.847-4.927c1.049-1.492,1.832-3.199,2.267-4.804C478.121,360.818,477.328,357.366,473.9,356.51z
					 M471.964,361.894c-0.394,0.686-0.704,1.318-0.883,1.713c-0.177,0.391-0.342,0.841-0.458,1.281
					c-0.02-0.035-0.043-0.065-0.061-0.102c-0.302-0.612-0.239-1.468-0.151-2.107c0.03-0.217,0.062-0.542,0.133-0.801
					c0.09-0.019,0.444-0.367,0.594-0.412c0.013-0.004,0.024-0.004,0.037-0.008C471.449,361.572,471.716,361.712,471.964,361.894z
					 M472.627,368.685c0.586-0.443,1.125-0.986,1.605-1.56c-0.013,0.113-0.041,0.221-0.063,0.332
					C473.769,368.02,473.244,368.453,472.627,368.685z"/>
				<path style="fill:#7658DC;" d="M499.644,339.524c-0.99-1.684-3.048-2.689-4.982-2.491c-4.271,0.438-8.125,7.348-7.167,11.308
					c0.095,0.392,0.214,0.736,0.352,1.039c-0.035,0.524,0.013,1.047,0.186,1.552c2.162,6.284,8.85-1.871,10.314-4.267
					c0.507-0.828,1.046-1.779,1.42-2.772C500.7,342.167,501.275,340.212,499.644,339.524z M496.37,345.932
					c-0.07,0.045-0.148,0.089-0.222,0.134c0.41-0.556,0.781-1.146,1.086-1.745c0.075,0.316,0.102,0.642,0.073,0.972
					C496.984,345.55,496.622,345.771,496.37,345.932z M490.13,343.202c0.188-1.726,1.709-2.225,3.271-2.009
					c-0.253,0.196-0.489,0.395-0.694,0.592c-0.461,0.444-1.179,1.323-1.776,2.322c-0.233,0.152-0.463,0.338-0.672,0.541
					C490.129,344.173,490.078,343.677,490.13,343.202z"/>
				<path style="fill:#7658DC;" d="M521.793,335.292c-0.522-0.772-1.4-0.81-2.172-0.405c-0.544,0.286-1.035,0.705-1.474,1.192
					c-1.962,0.306-3.297,2.592-3.87,4.349c-0.427,1.308-0.25,3.224,1.462,3.346c2.472,0.177,4.563-2.987,5.526-4.822
					C521.8,337.935,522.533,336.387,521.793,335.292z"/>
			</g>
			<path style="fill:#231C3A;" d="M82.116,351.168c-0.474-4.171-1.678-8.144-3.34-11.954c-2.741-8.995-7.041-18.067-12.383-24.979
				c-3.309-4.281-7.092-8.076-12.835-7.801c-4.379,0.21-8.71,2.227-12.768,4.379c-2.729,0.925-5.748,2.772-8.269,4.446
				c-4.641,2.542-9.162,5.275-13.579,8.17c-7.664,4.14-15.412,8.082-22.323,13.556c-6.979,5.527-12.04,12.984-13.295,21.917
				c-1.682,11.971,1.173,25.65,4.79,37.044c1.515,4.772,3.215,10.529,7.687,13.407c3.47,2.233,7.762,2.037,11.635,1.123
				c1.115,0.566,2.3,1.022,3.566,1.339c12.177,3.054,25.281-4.008,35.835-9.278c9.785-4.886,19.206-11.015,25.91-19.814
				C79.591,373.736,83.402,362.498,82.116,351.168z M6.047,403.168c-5.848-5.269-9.179-13.003-12.2-20.11
				c-3.514-8.265-7.319-18.287-6.031-27.441c1.371-9.741,12.482-16.124,19.858-21.549c7.5-5.517,15.371-10.508,23.555-14.937
				c-8.187,5.163-15.738,11.439-23.477,17.176c-6.564,4.866-14.055,11.271-14.954,19.983c-1.096,10.623,5.517,21.743,10.044,30.91
				c3.967,8.033,9.003,14.948,18.049,14.702c-3.162,1.375-6.846,3.136-10.592,4.121C8.807,405.307,7.381,404.369,6.047,403.168z
				 M64.283,334.325c-7.712-9.775-16.968-14.7-29.087-9.385c-9.429,4.135-19.35,11.431-25.837,19.507
				c-6.564,8.172-7.568,17.18-3.245,26.768c4.234,9.391,12.8,17.388,23.713,15.495c9.547-1.657,17.647-9.05,23.671-16.219
				c5.178-6.162,11.434-14.51,11.515-22.961c0.106-11.123-13.632-13.648-22.278-13.876c-9.87-0.261-17.982,2.378-24.976,9.381
				c-4.658,4.664-11.813,13.748-8.513,20.842c1.824,3.919,6.378,6.588,9.143,9.905c2.734,3.279,5.499,6.424,9.9,4.295
				c6.575-3.181,11.032-11.78,14.439-17.824c1.924-3.414,4.504-7.284,2.264-11.159c-1.175-2.033-3.373-3.502-5.226-4.853
				c-2.346-1.71-5.154-4.331-8.057-4.938c-0.75-0.157-1.484-0.171-2.204-0.076c2.766-0.694,5.676-1.017,8.722-1.061
				c7.209-0.104,19.221,1.125,22.823,8.697c4.068,8.55-4.861,18.764-10.427,24.4c-5.481,5.551-12.739,10.83-20.812,11.234
				c-9.069,0.454-16.225-6.276-20.091-13.908c-1.846-3.645-3.157-7.711-3.465-11.801c-0.564-7.492,4.84-12.481,10.215-16.768
				c7.075-5.643,15.615-12.353,24.979-13.017c9.207-0.653,15.745,6.068,20.903,12.851c6.114,8.039,13.53,18.38,7.407,28.471
				c-4.92,8.108-13.833,13.384-21.611,18.399c-7.577,4.885-16.231,10.632-25.574,10.837c-8.491,0.186-13.103-7.082-16.515-13.874
				c-3.517-7-7.238-14.213-9.258-21.809c-1.626-6.113-1.961-11.605,3.058-16.45c2.951-2.848,6.365-5.153,9.661-7.572
				c7.423-5.45,14.502-11.382,22.435-16.102c6.348-3.777,16.977-9.848,24.427-5.58c3.042,1.743,4.982,4.743,6.925,7.551
				c2.914,4.21,6.017,8.297,8.748,12.631c0.914,1.45,1.749,2.937,2.514,4.451c0.057,0.155,0.114,0.311,0.17,0.466
				c3.812,10.481,7.258,22.771-1.664,31.621c-6.03,5.981-13.872,10.495-21.32,14.545c0.977-0.694,1.943-1.383,2.888-2.056
				c8.127-5.789,15.92-13.204,19.434-22.78C77.89,352.214,70.436,342.123,64.283,334.325z M16.854,361.005
				c2.504,1.373,5.622,2.838,8.26,3.902c1.524,0.615,2.612,0.766,4.01-0.155c4.705-3.1,4.136-10.333,1.624-14.458
				c-0.12-0.197-3.415,3.077-2.678,4.287c0.752,1.236,1.248,2.594,1.503,4.017c0.105,0.584,0.075,1.262,0.206,1.841
				c0.594,2.627,0.227,0.586-0.305,0.438c-1.764-0.489-3.083-1.392-4.755-2.203c-1.784-0.866-4.951-1.372-6.345-2.81
				c-1.809-1.864-0.225-2.991,1.028-4.917c1.233-1.895,2.37-3.915,4.111-5.398c4.047-3.449,7.377-1.12,11.057,1.483
				c4.524,3.2,9.971,6.01,7.069,12.407c-1.331,2.932-3.311,5.795-5.215,8.367c-1.817,2.454-4.618,6.29-7.984,6.557
				c-3.848,0.306-6.27-4-8.467-6.502c-2.604-2.965-7.039-5.346-8.211-9.316c-1.524-5.161,2.702-9.989,6.222-13.194
				c2.896-2.636,6.062-4.409,9.469-5.537c-5.381,2.364-9.653,10.599-11.864,14.685C14.038,357.36,13.667,359.258,16.854,361.005z
				 M2.129,335.473c-0.227,0.176-0.458,0.347-0.685,0.524c-5.678,4.419-11.668,9.724-14.696,16.446
				C-11.099,344.908-4.629,339.696,2.129,335.473z M-0.527,405.516c-7.498-3.78-9.438-15.902-11.038-23.317
				c-0.195-0.903-0.389-1.824-0.579-2.753c1.317,3.728,2.87,7.327,4.363,10.653c2.449,5.458,5.426,11.826,9.857,16.35
				C1.188,406.245,0.317,405.942-0.527,405.516z M57.064,393.765c-7.974,4.877-16.92,9.269-25.844,12.103
				c-5.003,1.589-10.422,2.563-15.476,1.79c3.309-1.376,6.56-2.937,9.788-4.348c6.76-2.955,13.483-6,20.041-9.385
				c12.188-6.291,26.77-14.412,33.016-26.604C76.032,379.347,67.168,387.585,57.064,393.765z"/>
			<path style="fill:#231C3A;" d="M740.74,285.385c-6.325-16.025-18.24-32.711-33.919-40.585c-14.44-7.252-32.646-8.544-48.29-4.926
				c-14.544,3.363-26.455,13.038-34.729,25.217c-9.232,13.588-14.254,29.706-13.449,46.173c0.498,10.183,3.014,20.196,6.603,29.708
				c2.911,7.717,6.381,16.665,12.994,22.036c7.174,5.827,15.861,3.932,24.228,2.452c5.195-0.919,9.824-2.483,12.437-7.355
				c3.507-6.54,0.635-14.788-1.251-21.361c-2.315-8.067-3.482-16.006-2.661-24.41c1.024-10.478,4.635-21.123,12.065-28.812
				c6.994-7.237,18.906-13.614,29.089-9.939c9.319,3.363,16.09,13.817,21.198,21.826c3.495,5.48,6.413,11.215,4.39,17.743
				c-1.325,4.276-2.267,8.028-2.308,12.547c-0.004,0.464,0.704-0.154,0.748-0.195c1.445-1.334,2.517-2.573,3.578-4.213
				c2.093-1.802,4.703-3.248,6.538-5.164c1.935-2.02,3.485-4.53,4.643-7.066C746.253,301.156,743.782,293.091,740.74,285.385z
				 M741.974,305.916c-0.979,5.031-4.451,8.537-8.247,11.543c-1.424,1.128-2.712,2.31-3.844,3.651
				c-0.431-0.577,0.043-4.074,0.17-4.729c0.41-2.111,1.286-4.098,1.902-6.149c1.062-3.537,1.051-6.527-0.229-10.037
				c-2.608-7.149-7.622-13.396-12.272-19.313c-4.99-6.351-11.259-12.107-19.816-12.077c-7.486,0.026-15.099,4.044-20.727,8.766
				c-8.764,7.352-14.534,18.026-17.211,29.045c-1.549,6.374-2.083,13.009-1.593,19.55c0.587,7.835,3.574,14.975,5.007,22.631
				c0.426,2.276,0.969,5.033,0.514,7.328c-0.563,2.84-2.449,3.849-4.961,4.631c-3.189,0.993-6.649,1.391-9.94,1.916
				c-9.574,1.527-17.205-0.301-23.055-8.345c-5.334-7.333-8.599-16.706-11.124-25.338c-2.822-9.643-4.328-19.732-3.641-29.787
				c1.226-17.951,10.122-36.177,24.781-46.917c13.157-9.639,30.208-11.868,46.087-9.84c18.94,2.419,33.055,12.339,44.09,27.625
				c5.95,8.241,10.662,17.485,13.195,27.359C741.754,300.138,742.52,303.112,741.974,305.916z"/>
			<path style="fill:#231C3A;" d="M723.66,134.746c-5.828-6.74-14.391-11.975-23.008-7.219c-0.035,0.02-0.065,0.041-0.1,0.061
				c0.061-0.216,0.082-0.35,0.044-0.334c-13.673,5.734-5.742,20.885-5.347,31.397c0.318,8.452-8.211,15.317-9.94,23.564
				c-1.604,7.649,1.601,15.071,9.307,17.564c14.691,4.752,29.47-7.301,35.577-19.7C737.378,165.494,734.221,146.96,723.66,134.746z
				 M729.165,178.515c-4.382,11.936-20.48,21.588-33.094,16.715c-6.574-2.54-9.565-9.2-8.079-15.966
				c1.352-6.154,5.902-11.061,8.39-16.769c1.97-4.52,1.63-8.569,0.627-13.325c-0.259-1.228-0.644-2.633-1.02-4.113
				c0.139-0.283,0.225-0.537,0.221-0.726c-0.082-4.583-2.05-9.586,2.487-12.474c2.738-1.742,6.486-2.298,9.546-1.388
				c5.574,1.657,10.399,5.861,13.872,10.395C729.945,151.087,733.694,166.178,729.165,178.515z"/>
			<path style="fill:#231C3A;" d="M670.978,142.695c-3.996,0.342-7.391,4.115-9.213,8.444c-3.91,5.509-1.786,15.693,3.927,18.988
				c7.603,4.385,14.898-5.115,15.612-11.928C681.906,152.442,678.31,142.069,670.978,142.695z M677.516,164.424
				c-1.597,2.953-6.287,3.074-8.895,1.805c-2.464-1.199-3.812-3.492-4.788-5.949c-0.269-0.677-0.509-1.368-0.725-2.065
				c0.057-0.185,0.08-0.351,0.051-0.479c-1.114-4.889,1.781-11.989,7.748-9.463c3.78,1.601,5.99,5.977,6.768,9.792
				C678.05,159.9,678.454,162.689,677.516,164.424z"/>
			<path style="fill:#231C3A;" d="M766.5,112.882c-0.324-3.508-1.028-7.48-3.016-10.476c-1.034-1.558-2.604-2.781-3.878-4.16
				c-0.325-1.321-1.048-2.503-2.003-3.563c-0.059-0.304-0.102-0.618-0.109-0.951c-0.002-0.075-0.196,0.075-0.469,0.342
				c-2.154-2.106-5.148-3.707-7.432-4.969c-5.784-3.195-12.838-4.993-18.914-1.522c-3.989,2.279-7.151,6.409-8.679,10.725
				c-2.278,6.434,0.367,12.196,3.759,17.659c4.57,7.361,6.733,14.781,9.848,22.737c2.155,5.504,6.185,10.21,12.507,10.274
				c9.502,0.096,14.691-10.09,16.801-18.013C766.462,125.157,767.054,118.871,766.5,112.882z M763.633,127.648
				c-0.795,5.935-2.321,13.706-8.319,16.485c-5.603,2.596-11.781,0.218-15.091-4.719c-3.978-5.932-4.816-13.709-8-20.099
				c-2.934-5.887-8.192-11.312-8.638-18.127c-0.866-13.24,14.225-13.134,22.28-9.161c2.557,1.261,6.773,3.363,9.375,6.082
				c0.248,1.659,1.143,3.016,2.246,4.294c0.015,0.167,0.044,0.332,0.042,0.501c0,0.029,0.104-0.048,0.247-0.17
				c1.607,1.797,3.523,3.485,4.432,5.725C764.622,114.411,764.473,121.382,763.633,127.648z"/>
			<path style="fill:#231C3A;" d="M354.566,529.294c-4.527-3.673-7.938-8.413-11.445-13.019c-3.816-5.012-7.753-9.938-11.617-14.913
				c-7.67-9.874-15.806-19.32-26.166-26.473c-19.072-13.168-41.607-15.755-63.835-10.411c-13.519,3.25-26.535,7.953-40.484,9.169
				c-14.184,1.237-28.254-0.495-42.226-2.839c-20.909-3.508-46.706-9.176-65.152,4.793c-14.769,11.184-19.834,30.249-18.804,48.005
				c0.009,0.153,2.375-2.079,2.327-3.21c-0.811-18.993,4.908-38.802,24.098-46.328c22.085-8.663,47.37,0.085,69.802,2.754
				c11.38,1.354,22.974,1.571,34.331-0.102c12.258-1.805,23.894-6.116,35.929-8.887c21.022-4.841,42.319-2.163,60.489,9.831
				c10.413,6.874,18.693,16.09,26.352,25.835c3.943,5.017,7.895,10.031,11.817,15.064c3.866,4.96,7.504,10.184,12.453,14.145
				C352.902,533.081,355.233,529.835,354.566,529.294z"/>
			<path style="fill:#7658DC;" d="M794.096,449.587c-3.845-6.762-8.533-13.489-13.925-19.663c1.164-1.398,2.389-3.576,1.728-4.151
				c-8.759-7.625-16.882-16.182-28.319-19.63c-4.985-1.503-10.185-2.305-15.435-2.557c-9.023-1.439-18.029-0.147-26.525,2.951
				c-19.866,5.101-36.936,15.651-50.023,31.67c-25.294,30.96-35.22,77.062-10.672,111.47c27.561,38.632,89.62,33.639,122.979,5.627
				c13.731-11.53,24.212-27.29,28.986-44.616C808.728,489.495,804.873,468.54,794.096,449.587z M725.288,561.947
				c-14.677-0.347-29.375-5.684-40.857-15.495c-11.219-9.587-19.033-22.836-22.505-36.973c6.518,18.999,21.303,35.098,42.144,42.801
				c0.268,0.099,0.54,0.177,0.808,0.273c0.64,0.318,1.272,0.651,1.921,0.947c37.598,17.167,74.763-15.339,77.453-53.084
				c0.065-0.371,0.147-0.739,0.206-1.11c0.17-1.072,0.291-2.133,0.398-3.19c1.188-4.945,1.841-9.981,1.954-15.007
				c2.388,17.271-0.375,35.903-8.588,50.805C765.145,547.607,745.559,559.343,725.288,561.947z M663.296,472.665
				c1.13-3.219,2.561-6.35,4.285-9.366c-3.713,10.071-5.225,20.833-4.031,31.443C662.162,487.391,662.102,479.911,663.296,472.665z
				 M775.902,495.421c-4.719,22.662-25.068,46.884-47.974,44.994c9.124-3.033,17.543-9.465,23.839-16.983
				c12.122-14.475,20.854-32.534,20.967-51.701c0.004-0.74-0.01-1.484-0.036-2.229c1.714,3.763,3.141,7.663,4.263,11.631
				C777.236,485.797,776.906,490.598,775.902,495.421z M698.622,457.57c5.062-4.57,10.274-7.125,15.414-8.08
				c-10.404,7.832-18.961,18.87-24.121,29.824c-0.459,0.975-0.877,1.97-1.269,2.977C688.566,472.998,691.542,463.962,698.622,457.57
				z M692.346,480.335c4.442-13.321,17.212-25.342,31.271-30.834c1.344,0.248,2.671,0.597,3.978,1.037
				c-17.197,1.724-30.568,18.128-32.055,34.856c-1.015,11.419,3.345,25.422,12.18,33.271c-2.608-1.568-5.034-3.481-7.166-5.767
				c-4.784-5.131-8.394-11.934-10.33-19.194C690.198,489.224,690.893,484.694,692.346,480.335z M757.927,489.669
				c0.738,9.513-2.522,19.239-10.697,26.213c-4.434,3.782-9.684,6.124-15.158,7.147c12.882-5.44,19.806-22.856,18.402-35.904
				c-0.877-8.147-5.052-16.942-12.585-20.848c-1.627-1.391-3.705-2.294-6.341-2.513c-1.582-0.132-3.115,0.026-4.596,0.403
				c-5.547,0.363-11.096,2.545-15.569,5.523c-4.83,3.216-8.453,7.383-10.796,12.029c0.33-9.552,4.958-17.586,14.992-21.472
				c7.718-2.989,16.368-2.641,23.749,1.146c4.839,2.483,8.841,6.04,11.893,10.215C754.462,477.227,756.801,483.434,757.927,489.669z
				 M732.301,516.424c-0.561,0.122-1.116,0.219-1.665,0.298c2.942-3.049,5.213-6.965,6.926-10.483
				c2.104-4.32,4.597-12.841,5.211-21.129C748.097,497.105,746.201,513.412,732.301,516.424z M708.715,498.203
				c1.608,6.479,8.166,12.328,15.051,8.994c4.868-2.358,9.364-9.744,9.358-15.129c-0.005-4.736-2.966-7.422-7.069-9.262
				c-3.596-1.613-5.115-0.436-7.603,2.567c-2.172,2.623-3.289,5.18-3.772,7.831c-0.845-2.123-1.175-4.475-1.203-6.74
				c-0.079-6.372,4.912-13.541,10.851-14.819c2.301,0.069,4.548,0.47,6.621,1.242c0.544,0.345,1.083,0.755,1.616,1.237
				c5.503,4.988,5.456,16.122,4.529,22.881c-0.922,6.717-3.19,15.565-10.893,17c-7.843,1.46-15.094-5.257-19.022-11.243
				c-5.401-8.23-7.988-19.376,1.222-26.272c1.979-1.482,4.338-2.667,6.863-3.501C709.769,480.571,706.964,491.151,708.715,498.203z
				 M720.415,497.14c-0.504-3.422-2.819-7.229,1.573-6.051c3.026,0.812,8.609,6.402,3.989,8.965
				c-1.585,0.879-4.031,0.129-6.044-0.978C720.291,498.36,720.496,497.685,720.415,497.14z M717.824,438.783
				c-2.134,0.469-4.244,1.094-6.31,1.871c1.577-0.705,3.216-1.32,4.91-1.853C716.891,438.794,717.357,438.78,717.824,438.783z
				 M698.387,452.285c1.474-0.973,2.992-1.826,4.529-2.616c-7.807,6.058-13.576,14.744-16.578,24.237
				c1.273-6.541,3.583-12.417,6.818-17.464C694.706,454.962,696.441,453.569,698.387,452.285z M763.363,496.403
				c0.513-1.883,0.94-3.774,1.272-5.66c2.569-14.604-0.909-29.724-10.673-40.435c9.814,6.142,14.214,18.605,13.405,31.487
				c-0.477,7.603-2.457,15.351-5.716,22.537C762.442,501.722,763.009,499.074,763.363,496.403z M685.312,449.413
				c5.412-4.37,11.601-7.277,18.152-8.934c-4.596,3.784-8.621,8.525-11.994,13.873c-0.13,0.143-0.265,0.283-0.393,0.427
				c-11.87,13.41-15.378,30.298-10.736,47.392c0.217,1.92,0.518,3.816,0.909,5.682c-5.917-7.484-9.996-16.441-11.001-25.837
				C670.785,469.377,675.358,457.451,685.312,449.413z M676.779,513.7c3.221,4.161,7.019,7.9,11.232,11.066
				c2.841,4.434,6.446,8.381,10.937,11.59c1.099,0.785,2.209,1.479,3.328,2.098c1.834,1.572,3.766,3.003,5.786,4.286
				c-6.359-1.963-12.37-5.229-17.639-9.966C684.893,527.804,680.234,521.158,676.779,513.7z M671.909,465.438
				c1.764-5.201,4.698-9.859,8.407-13.919C676.891,455.702,674.08,460.401,671.909,465.438z M752.501,543.869
				c-4.954,2.695-10.158,4.363-15.454,5.178c7.803-2.306,15.176-6.123,21.509-11.227c7.113-5.732,13.064-12.759,17.658-20.518
				C771.742,528.18,763.769,537.738,752.501,543.869z M772.946,518.634c-4.587,7.072-10.854,12.934-18.031,17.334
				c11.699-10.984,20.581-27.169,24.7-40.875c0.004,0.044,0.011,0.088,0.015,0.132c0.277,2.931,0.337,5.838,0.222,8.708
				c-0.008,0.058-0.02,0.116-0.028,0.174C778.239,509.094,775.967,513.976,772.946,518.634z M713.109,425.562
				c-11.059,3.118-21.55,8.817-30.582,16.692C690.69,433.531,701.451,427.688,713.109,425.562z M674.791,453.358
				c1.867-2.052,3.833-3.967,5.869-5.771c-4.163,4.51-7.675,9.591-10.268,15.096c0.964-2.891,2.128-5.656,3.494-8.27
				C674.191,454.063,674.477,453.704,674.791,453.358z M775.121,524.406c-3.394,7.394-8.641,13.912-15.907,18.958
				C765.396,538.006,770.836,531.549,775.121,524.406z M672.366,452.834c-0.516,0.642-1.039,1.277-1.538,1.937
				c-1.689,2.231-3.24,4.535-4.677,6.891c4.417-12.377,12.709-23.391,24.425-30.955C683.131,436.73,676.98,444.428,672.366,452.834z
				 M792.17,477.097c3.412,14.122,1.596,29.46-6.035,43.34C791.418,506.691,793.589,491.612,792.17,477.097z M763.84,424.756
				c-35.064-26.005-80.404-4.593-98.232,31.222c-3.406,6.842-5.581,13.917-6.641,21.001c-3.226,9.6-4.403,19.811-3.06,30.278
				c0.868,6.765,2.738,13.398,5.441,19.684c-11.805-23.361-10.334-53.213,3.8-76.843c18.19-30.41,55.443-52.94,89.075-32.627
				c13.836,8.356,26.359,21.088,35.07,35.866c-2.412-3.843-5.38-7.513-8.915-10.964C776.073,435.753,770.6,429.77,763.84,424.756z
				 M801.255,503.359c-4.314,36.945-36.263,61.844-71.612,66.786c-18.774,2.625-39.562,1.13-56.231-8.628
				c-15.672-9.174-26.183-25.614-30.642-42.965c-8.817-34.313,7.12-73.058,35.764-93.222c3.832-2.697,7.964-5.074,12.288-7.131
				c-1.188,0.914-2.354,1.851-3.488,2.815c-31.999,27.178-52.083,78.407-27.677,116.789c11.396,17.921,30.403,30.055,51.483,30.979
				c11.119,2.089,22.766,1.163,33.603-3.033c16.091-6.231,28.217-19.306,36.303-34.25c15.888-21.532,22.357-49.34,11.36-72.465
				C799.422,472.935,803.014,488.291,801.255,503.359z"/>
			<path style="fill:#231C3A;" d="M102.893,178.349c-1.624-9.777-7.507-18.34-13.299-26.141c-6.832-9.2-14.46-17.888-22.36-26.183
				c-0.181-0.19-0.996,0.602-1.664,1.541c-10.093-4.383-21.531,2.573-27.54,12.466c-10.553,17.372-2.005,36.036,6.908,52.026
				c7.755,13.913,22.202,29.96,39.714,21.678C97.858,207.492,105.262,192.607,102.893,178.349z M89.984,207.991
				c-13.275,8.907-27.381,1.635-36.25-9.64c-4.88-6.204-8.621-13.546-12.022-20.646c-3.337-6.967-6.096-14.481-6.248-22.292
				c-0.206-10.607,5.084-20.856,15.348-24.659c6.904-2.558,13.66-0.458,18.716,4.55c8.447,9.436,16.847,18.938,23.601,29.7
				C101.662,178.597,105.656,197.477,89.984,207.991z"/>
			<path style="fill:#231C3A;" d="M583.605,9.237c-3.478-4.878-8.618-7.814-13.345-11.329c-5.553-4.13-10.824-8.622-16.075-13.125
				c-3.669-3.146-7.493-6.215-11.181-9.426c10.823,8.016,21.731,15.905,33.61,22.328c0.688,0.372,2.896-3.075,2.284-3.654
				c-11.702-11.058-28.278-18.264-37.879-31.441c4.498,2.778,8.565,6.358,12.633,9.64c6.716,5.417,13.783,10.874,21.442,14.877
				c0.762,0.398,2.579-2.869,2.366-3.516c-1.233-3.74-4.614-6.478-8.146-8.809c0.47-0.81,0.819-1.721,0.758-2.043
				c-1.442-7.69-8.417-12.443-14.763-17.424c0.883-0.805,2.072-3.012,1.578-3.298c-3.257-1.884-6.519-3.636-10.033-5.001
				c-0.818-0.318-2.682,2.901-2.232,3.572c4.852,7.234,15.221,11.813,20.331,19.179c-7.099-4.859-12.57-12.057-20.791-15.235
				c-0.796-0.308-2.77,2.961-2.253,3.606c0.002,0.003,0.005,0.006,0.007,0.009c-1.578-0.894-3.209-1.684-4.917-2.319
				c-0.782-0.291-2.656,2.831-2.349,3.491c1.462,3.135,3.293,5.95,5.382,8.54c-3.816-2.821-7.639-5.632-11.508-8.374
				c-0.621-0.44-2.696,2.909-2.251,3.603c6.54,10.199,16.578,17.517,25.648,25.317c4.259,3.663,8.542,7.304,12.968,10.764
				c-5.671-3.537-11.199-7.322-16.757-11.091c-6.068-4.114-12.204-8.125-18.284-12.221c-5.451-3.672-10.551-8.617-16.609-11.223
				c-0.824-0.355-2.639,2.902-2.239,3.583c7.454,12.716,19.187,21.904,29.997,31.631c-11.586-9.417-21.891-20.403-34.824-28.065
				c-0.676-0.4-2.557,2.804-2.301,3.419c2.726,6.519,8.73,12.064,13.388,17.238c5.913,6.568,12.081,12.922,18.328,19.172
				c0.778,0.779,1.567,1.546,2.351,2.319c-6.336-5.265-12.604-10.615-18.668-16.194c-6.048-5.564-11.686-11.658-18.612-16.162
				c-0.669-0.435-2.782,2.996-2.307,3.691c8.445,12.361,21.08,21.44,31.371,32.182c8.226,8.586,17.197,16.651,24.457,26.081
				c-2.369-1.902-4.597-4.035-6.685-5.733c-5.551-4.513-11.157-8.956-16.716-13.459C520.212,15.777,510.36,6.37,499.24-1.498
				c-0.591-0.418-3.07,3.216-2.358,3.774c4.116,3.224,6.885,8.378,10.25,12.364c2.21,2.618,4.389,5.257,6.588,7.879
				c-5.875-5.6-11.76-11.179-18.78-15.372c-0.69-0.412-2.771,2.992-2.444,3.632c4.471,8.755,12.872,14.665,19.714,21.62
				c-6.292-5.863-12.972-11.432-18.261-18.192c0.081-0.298,0.077-0.545-0.065-0.684c-0.456-0.47-0.938-0.913-1.446-1.328
				c-0.477-0.413-2.737,2.835-2.225,3.561c6.581,9.329,15.929,16.327,23.9,24.398c9.11,9.225,18.012,18.652,27.522,27.473
				c0.45,0.418,2.927-2.975,2.35-3.761c-7.865-10.711-16.645-20.668-25.316-30.722c0.271,0.241,0.539,0.485,0.812,0.723
				c10.034,8.793,19.798,17.682,29.038,27.322c0.355,0.37,3.115-3.022,2.4-3.84c-9.13-10.455-18.739-20.474-28.036-30.778
				c-3.361-3.725-6.564-7.574-9.775-11.42c5.084,4.343,10.103,8.767,15.296,12.985c5.31,4.314,10.676,8.555,15.972,12.888
				c4.519,3.698,9.656,9.432,15.475,10.82c0.969,0.231,2.86-3.057,2.398-3.838c-6.31-10.688-15.199-19.338-23.936-28.049
				c11.714,9.828,23.445,19.871,36.588,27.725c0.663,0.396,2.998-3.175,2.339-3.743c-12.983-11.204-25.832-22.582-38.031-34.643
				c-5.867-5.801-11.64-11.715-17.243-17.772c-3.137-3.391-6.95-7.046-10.188-10.967c9.542,7.05,17.906,15.606,27.116,23.107
				c12.382,10.085,25.531,20.326,39.5,28.105c0.69,0.384,2.914-3.088,2.314-3.704c-5.56-5.704-12.061-10.219-18.315-15.104
				c-6.309-4.928-12.105-10.442-18.03-15.814c-8.474-7.684-17.619-14.968-24.927-23.801c2.745,2.059,5.406,4.269,8.151,6.132
				c6.066,4.117,12.183,8.16,18.246,12.283c11.427,7.77,22.756,15.612,35.481,21.144C582.117,13.254,584.086,9.912,583.605,9.237z"
				/>
			<path style="fill:#E492D2;" d="M437.553,46.608c-6.359-5.116-12.208,14.514-13.109,17.574
				c-1.659,5.638-3.332,11.832-4.116,18.061c-1.635,0.856-3.367,1.514-5.2,1.89c-7.322,1.504-11.941-2.927-12.409-10.175
				c-0.074-1.147-0.054-2.308,0.03-3.473c4.123-2.615,7.737-6.493,10.326-9.762c4.435-5.6,9.649-12.955,11.19-20.05
				c0.44-2.026,0.661-5.063-2.064-5.339c-2.484-0.251-5.196,3.236-6.569,4.841c-4.468,5.218-8.2,11.386-10.908,17.698
				c-1.145,2.67-2.663,6.484-3.705,10.531c-4.334,1.587-9.782,1.787-12.719-2.109c-1.477-1.958-2.118-4.358-2.205-6.953
				c9.663-9.393,18.585-25.206,17.593-31.006c-1.145-6.696-9.664,5.131-10.93,7.262c-3.747,6.312-6.727,13.389-8.195,20.596
				c-0.146,0.717-0.282,1.482-0.397,2.274c-0.387,0.289-0.775,0.575-1.168,0.844c-5.254,3.591-11.187,4.321-13.735-0.846
				c6.632-5.048,11.315-13.738,14.086-21.126c1.421-3.789,5.297-19.194-3.084-17.868c-6.022,0.953-9.408,11.666-10.942,16.399
				c-1.89,5.831-5.067,14.897-3.972,22.049c-1.378,0.356-2.787,0.357-4.125-0.248c-3.308-1.496-3.901-6.158-4.261-9.36
				c-0.991-8.825,0.293-20.566,6.199-27.56c0.587-0.695,1.965-4.085,0.338-2.174c-6.128,7.2-8.778,16.916-9.167,26.222
				c-0.315,7.527,1.118,21.185,11.654,15.747c0.41,1.186,0.975,2.291,1.741,3.279c3.866,4.989,10.02,2.788,16.155-2.464
				c-0.226,4.62,0.76,9.426,5.38,11.258c3.755,1.489,7.515,0.901,11.007-0.76c-1.061,6.196-0.488,12.343,4.662,15.322
				c4.896,2.832,10.366,1.121,15.094-2.039c-0.43,5.533-0.042,11.03,1.809,16.128c0.161,0.442,2.66-2.241,2.327-3.21
				c-1.568-4.562-2.033-9.548-1.799-14.637c2.73-2.193,5.094-4.735,6.785-6.908c3.602-4.629,6.549-9.908,8.28-15.527
				C438.397,57.849,440.819,49.236,437.553,46.608z M368.174,54.747c-0.948-6.809,1.293-14.249,3.332-20.694
				c1.006-3.178,2.604-9.368,6.045-10.616c3.199-1.161,4.837,1.814,5.303,4.474c1.581,9.008-4.818,20.213-11.003,26.022
				c-0.928,0.871-2.069,1.805-3.319,2.576C368.387,55.961,368.262,55.382,368.174,54.747z M392.567,38.309
				c0.921-1.777,1.891-3.642,3.171-5.195c0.87-1.055,2.736-3.202,4.235-2.895c2.218,0.455,0.756,4.17,0.294,5.561
				c-2.532,7.625-7.737,15.611-14.102,21.083C386.748,50.222,390.221,42.836,392.567,38.309z M408.891,52.082
				c2.154-3.896,5.248-10.135,9.356-12.241c1.836-0.941,3.267-0.657,3.712,1.594c0.616,3.119-2.408,7.432-3.933,9.987
				c-3.644,6.104-8.1,12.298-14.441,15.819c-0.15,0.083-0.311,0.161-0.466,0.242C404.053,62.063,406.351,56.677,408.891,52.082z
				 M433.578,67.17c-2.334,5.237-6.132,10.447-11.045,13.769c0.773-8.663,3.41-17.478,6.136-24.899
				c0.816-2.221,1.965-5.749,4.675-5.934c1.957-0.134,2.481,1.143,2.829,2.892C437.077,57.541,435.397,63.09,433.578,67.17z"/>
			<path style="fill:#E492D2;" d="M603.139,530.762c-3.002-11.564-3.27-23.484-7.577-34.765c-3.49-9.143-8.893-17.906-16.287-24.406
				c-6.452-5.672-14.566-9.361-23.27-9.034c-10.413,0.39-19.557,6.625-28.478,11.347c-11.967,6.335-23.748,9.04-37.305,8.213
				c-13.09-0.799-26.025-3.02-38.901-5.415c-21.42-3.983-46.992-10.7-68.279-2.767c-9.168,3.417-16.656,9.786-20.902,18.637
				c-4.316,8.996-4.719,19.117-6.309,28.806c-0.144,0.876,2.178-1.865,2.338-2.755c1.631-9.11,1.751-19.387,6.135-27.724
				c5.54-10.534,18.772-14.943,29.881-16.067c22.313-2.258,45.011,4.191,66.843,7.876c10.689,1.804,21.64,3.392,32.502,3.48
				c11.055,0.089,20.931-2.747,30.687-7.801c8.627-4.469,17.175-10.523,27.011-11.839c8.56-1.145,16.879,1.808,23.609,7.015
				c8.206,6.349,14.145,15.499,17.943,25.055c4.545,11.436,4.768,23.584,8.081,35.287
				C600.967,534.278,603.399,531.762,603.139,530.762z"/>
		</g>
	</g>
</g>
</svg>
